<svg width="100" height="32" viewBox="0 0 100 32" fill="none" xmlns="http://www.w3.org/2000/svg">
<path d="M13.1776 -1.78368e-06L26.3548 22.9114L21.9624 30.5388L8.78516 7.65662L13.1776 -1.78368e-06Z" fill="#5F5F5F"/>
<path d="M0 22.9115L7.3304 10.1699L11.7228 17.8265L4.39242 30.5389L0 22.9115Z" fill="#5F5F5F"/>
<path d="M70.5157 16.5405C66.8215 16.5405 64.7271 18.7908 64.7271 21.6255V25.7752C64.7271 28.6099 66.8215 30.8602 70.5157 30.8602C74.2973 30.8602 76.2753 28.5807 76.2753 25.7752V21.6255C76.2462 18.82 74.2682 16.5405 70.5157 16.5405ZM70.5157 29.2236C66.9669 29.2236 67.1705 26.8565 67.1705 23.7296C67.1705 20.6026 66.9669 18.1771 70.5157 18.1771C74.0646 18.1771 73.8319 20.6026 73.8319 23.7296C73.8028 26.8565 74.0646 29.2236 70.5157 29.2236Z" fill="#5F5F5F"/>
<path d="M48.5538 30.5973H45.7031L43.6087 24.9863H35.7256L33.6603 30.5973H30.9259L38.2563 12.0986H41.3979L48.5538 30.5973ZM42.8814 23.0575L39.7689 14.6995H39.5071L36.3946 23.0575H42.8814Z" fill="#5F5F5F"/>
<path d="M53.0625 30.5973H50.5027V12.0986H53.0625V30.5973Z" fill="#5F5F5F"/>
<path d="M63.3019 30.8894C60.9166 30.9771 59.5495 30.5972 58.8804 29.9835C58.2114 29.399 57.8623 28.2593 57.8623 26.5643V18.1771H55.0116V16.4821H57.8623V12.0693H60.4512V16.4821H63.3019V18.1771H60.4512V26.7104C60.4512 27.704 60.6257 28.347 61.0039 28.6976C61.3821 29.0191 62.1384 29.1944 63.3019 29.1944V30.8894Z" fill="#5F5F5F"/>
<path d="M99.1393 14.7872H96.5795V12.0986H99.1393V14.7872ZM99.1393 30.5973H96.5795V16.5406H99.1393V30.5973Z" fill="#5F5F5F"/>
<path d="M93.176 24.6357V18.2942C93.176 14.5827 90.7035 12.0403 85.9911 12.0403C81.3659 12.0403 78.7479 14.5535 78.7479 18.2942V24.6357C78.7479 28.3764 81.3659 30.8896 85.9911 30.8896C87.4164 30.8896 88.6382 30.6558 89.6563 30.2174L91.4307 32.0001L92.8269 30.5974L91.3725 29.1362C92.5651 28.0257 93.176 26.4768 93.176 24.6357ZM87.3873 25.1325L85.9911 26.5353L88.2309 28.7855C87.6491 28.9901 86.9219 29.1069 85.9911 29.1069C81.075 29.1069 81.3659 25.8339 81.3659 21.5088C81.3659 17.1837 81.075 13.8229 85.9911 13.8229C90.9071 13.8229 90.558 17.1837 90.558 21.5088C90.558 24.022 90.6744 26.1846 89.8017 27.5581L87.3873 25.1325Z" fill="#5F5F5F"/>
</svg>
